Coordinates
version=1
nRows=17
nColumns=40
inDegrees=yes

Units are S.I. units (second, meters, Newtons, ...)
If the header above contains a line with 'inDegrees', this indicates whether rotational values are in degrees (yes) or radians (no).

endheader
time	pelvis_tilt	pelvis_list	pelvis_rotation	pelvis_tx	pelvis_ty	pelvis_tz	hip_flexion_r	hip_adduction_r	hip_rotation_r	knee_angle_r	knee_angle_r_beta	ankle_angle_r	subtalar_angle_r	mtp_angle_r	hip_flexion_l	hip_adduction_l	hip_rotation_l	knee_angle_l	knee_angle_l_beta	ankle_angle_l	subtalar_angle_l	mtp_angle_l	lumbar_extension	lumbar_bending	lumbar_rotation	arm_flex_r	arm_add_r	arm_rot_r	elbow_flex_r	pro_sup_r	wrist_flex_r	wrist_dev_r	arm_flex_l	arm_add_l	arm_rot_l	elbow_flex_l	pro_sup_l	wrist_flex_l	wrist_dev_l
      1.80500000	    -14.86724446	     -3.29735021	     -0.42779607	      0.15290656	      0.54617872	     -1.21692536	     87.26304420	    -45.77941763	      1.54880663	    105.10298039	      1.83439306	     25.50911793	      7.74072122	      0.00000000	     96.27677604	    -44.36095264	     10.84318101	    107.00705885	      1.86762550	     27.17303671	     11.32378770	      0.00000000	    -24.00997433	      4.38193297	     -4.35410873	     44.99992434	    -14.99999999	     44.99992434	     75.00017585	     45.00000026	      0.00000000	      0.00000000	     44.99992434	    -14.99999999	     44.99992434	     75.00017585	     45.00000026	      0.00000000	      0.00000000
      1.81000000	    -15.29258808	     -3.24741555	     -0.45889447	      0.15261839	      0.54986404	     -1.21670116	     87.01925525	    -45.63812159	      0.94788864	    104.41323317	      1.82235470	     25.40019432	      7.61589913	      0.00000000	     95.94520797	    -44.33589460	     10.17792193	    106.29289294	      1.85516095	     27.00074300	     11.23813577	      0.00000000	    -23.35128062	      4.33494102	     -4.34399411	     44.99992434	    -14.99999999	     44.99992434	     75.00017585	     45.00000026	      0.00000000	      0.00000000	     44.99992434	    -14.99999999	     44.99992434	     75.00017585	     45.00000026	      0.00000000	      0.00000000
      1.81500000	    -15.78711120	     -3.19949868	     -0.48999937	      0.15235807	      0.55336207	     -1.21641019	     86.87056165	    -45.52122328	      0.32584169	    103.76543802	      1.81104854	     25.32450222	      7.52843855	      0.00000000	     95.71195675	    -44.31674841	      9.51340427	    105.58196171	      1.84275286	     26.85469071	     11.18435477	      0.00000000	    -22.80081383	      4.29607051	     -4.33649771	     44.99992434	    -14.99999999	     44.99992434	     75.00017585	     45.00000026	      0.00000000	      0.00000000	     44.99992434	    -14.99999999	     44.99992434	     75.00017585	     45.00000026	      0.00000000	      0.00000000
      1.82000000	    -15.71500763	     -3.10925151	     -0.50302663	      0.15214731	      0.55879573	     -1.21621782	     85.95608152	    -45.35751321	     -0.35823247	    102.91316692	      1.79617361	     24.74949166	      6.84547415	      0.00000000	     94.58543783	    -44.35117357	      8.55730813	    104.72964862	      1.82787719	     26.40175451	     10.58358060	      0.00000000	    -22.75518737	      4.18155277	     -4.28996186	     44.99992434	    -14.99999999	     44.99992434	     75.00017585	     45.00000026	      0.00000000	      0.00000000	     44.99992434	    -14.99999999	     44.99992434	     75.00017585	     45.00000026	      0.00000000	      0.00000000
      1.82500000	    -15.98479732	     -3.05960113	     -0.52970261	      0.15211612	      0.56286138	     -1.21593795	     85.48451844	    -45.20036293	     -0.95551495	    102.20768179	      1.78386057	     24.55660255	      6.76210291	      0.00000000	     94.05859790	    -44.39993086	      7.82138775	    104.00798283	      1.81528175	     26.14119928	     10.55768677	      0.00000000	    -22.15550942	      4.11504452	     -4.27670255	     44.99992434	    -14.99999999	     44.99992434	     75.00017585	     45.00000026	      0.00000000	      0.00000000	     44.99992434	    -14.99999999	     44.99992434	     75.00017585	     45.00000026	      0.00000000	      0.00000000
      1.83000000	    -16.00075467	     -2.98414945	     -0.59073838	      0.15210175	      0.56799257	     -1.21559954	     84.66018730	    -45.02505190	     -1.65338134	    101.38213172	      1.76945200	     24.42458347	      6.59575254	      0.00000000	     93.04225291	    -44.48517800	      6.94783972	    103.15026128	      1.80031168	     25.97374160	     10.52543239	      0.00000000	    -22.20605398	      3.97142711	     -4.22929054	     44.99992434	    -14.99999999	     44.99992434	     75.00017585	     45.00000026	      0.00000000	      0.00000000	     44.99992434	    -14.99999999	     44.99992434	     75.00017585	     45.00000026	      0.00000000	      0.00000000
      1.83500000	    -16.44142888	     -2.94350938	     -0.61650290	      0.15189942	      0.57150631	     -1.21536459	     84.43735652	    -44.85287264	     -2.19300701	    100.67090262	      1.75703871	     24.32571013	      6.51174789	      0.00000000	     92.76424322	    -44.41994076	      6.35673618	    102.43046454	      1.78774886	     25.80318099	     10.47093153	      0.00000000	    -21.45317971	      3.92641165	     -4.22345552	     44.99992434	    -14.99999999	     44.99992434	     75.00017585	     45.00000026	      0.00000000	      0.00000000	     44.99992434	    -14.99999999	     44.99992434	     75.00017585	     45.00000026	      0.00000000	      0.00000000
      1.84000000	    -16.68014122	     -2.88680706	     -0.64209089	      0.15173781	      0.57582089	     -1.21510385	     83.96122175	    -44.68707046	     -2.82409250	     99.92232292	      1.74397353	     23.89027355	      6.14945085	      0.00000000	     92.15458536	    -44.39730710	      5.59325664	    101.65484554	      1.77421176	     25.40200676	     10.13329030	      0.00000000	    -21.03336170	      3.87131751	     -4.21392369	     44.99992434	    -14.99999999	     44.99992434	     75.00017585	     45.00000026	      0.00000000	      0.00000000	     44.99992434	    -14.99999999	     44.99992434	     75.00017585	     45.00000026	      0.00000000	      0.00000000
      1.84500000	    -16.63051990	     -2.80415132	     -0.69215894	      0.15183064	      0.58101993	     -1.21475648	     83.07227786	    -44.48101381	     -3.46279971	     99.08978006	      1.72944292	     23.76887738	      5.87223474	      0.00000000	     91.06295804	    -44.46031609	      4.71024075	    100.79801332	      1.75925721	     25.26958664	     10.01626809	      0.00000000	    -21.01699200	      3.72730520	     -4.17132858	     44.99992434	    -14.99999999	     44.99992434	     75.00017585	     45.00000026	      0.00000000	      0.00000000	     44.99992434	    -14.99999999	     44.99992434	     75.00017585	     45.00000026	      0.00000000	      0.00000000
      1.85000000	    -17.04279273	     -2.76601776	     -0.72160607	      0.15165791	      0.58463310	     -1.21449122	     82.82370270	    -44.27751181	     -3.99126330	     98.37159337	      1.71690819	     23.62145003	      5.79709528	      0.00000000	     90.74254839	    -44.37201094	      4.13135555	    100.06448077	      1.74645465	     25.04947103	      9.96546540	      0.00000000	    -20.27240923	      3.68270034	     -4.16698802	     44.99992434	    -14.99999999	     44.99992434	     75.00017585	     45.00000026	      0.00000000	      0.00000000	     44.99992434	    -14.99999999	     44.99992434	     75.00017585	     45.00000026	      0.00000000	      0.00000000
      1.85500000	    -17.09905073	     -2.69298203	     -0.76323298	      0.15168320	      0.58949811	     -1.21419366	     82.10306579	    -44.07527805	     -4.60378877	     97.55467601	      1.70265030	     23.27276843	      5.38881420	      0.00000000	     89.83468079	    -44.37724778	      3.30474331	     99.22994920	      1.73188933	     24.74793933	      9.64611363	      0.00000000	    -20.10995889	      3.57950663	     -4.13937464	     44.99992434	    -14.99999999	     44.99992434	     75.00017585	     45.00000026	      0.00000000	      0.00000000	     44.99992434	    -14.99999999	     44.99992434	     75.00017585	     45.00000026	      0.00000000	      0.00000000
      1.86000000	    -17.56665310	     -2.66076065	     -0.79296797	      0.15152637	      0.59296119	     -1.21387881	     81.93883641	    -43.87598324	     -5.13342638	     96.86556514	      1.69062304	     23.24517906	      5.34709314	      0.00000000	     89.58451445	    -44.26289211	      2.76035910	     98.47175744	      1.71865639	     24.62664196	      9.64225827	      0.00000000	    -19.43759242	      3.53441607	     -4.13177326	     44.99992434	    -14.99999999	     44.99992434	     75.00017585	     45.00000026	      0.00000000	      0.00000000	     44.99992434	    -14.99999999	     44.99992434	     75.00017585	     45.00000026	      0.00000000	      0.00000000
      1.86500000	    -17.94443617	     -2.62287910	     -0.82051471	      0.15136822	      0.59673800	     -1.21364330	     81.63925243	    -43.63644725	     -5.63954646	     96.09814283	      1.67722900	     23.08863824	      5.23163743	      0.00000000	     89.20501304	    -44.13820599	      2.18933388	     97.70915799	      1.70534652	     24.40282373	      9.55908056	      0.00000000	    -18.65513930	      3.49003765	     -4.12847263	     44.99992434	    -14.99999999	     44.99992434	     75.00017585	     45.00000026	      0.00000000	      0.00000000	     44.99992434	    -14.99999999	     44.99992434	     75.00017585	     45.00000026	      0.00000000	      0.00000000
      1.87000000	    -18.01064461	     -2.55716988	     -0.87645184	      0.15139861	      0.60149589	     -1.21337958	     80.96953929	    -43.40375205	     -6.20386206	     95.26233031	      1.66264132	     22.50801485	      4.77537948	      0.00000000	     88.34793769	    -44.09445263	      1.44518830	     96.89932780	      1.69121231	     23.90470223	      9.12830753	      0.00000000	    -18.27539891	      3.43585380	     -4.12525613	     44.99992434	    -14.99999999	     44.99992434	     75.00017585	     45.00000026	      0.00000000	      0.00000000	     44.99992434	    -14.99999999	     44.99992434	     75.00017585	     45.00000026	      0.00000000	      0.00000000
      1.87500000	    -18.41136972	     -2.52172260	     -0.89133258	      0.15127870	      0.60520084	     -1.21308667	     80.70739453	    -43.16760368	     -6.70607782	     94.52638501	      1.64979665	     22.49091729	      4.65268068	      0.00000000	     88.00192903	    -43.94856955	      0.88990510	     96.10590463	      1.67736447	     23.81631335	      9.06608943	      0.00000000	    -17.69918771	      3.36604624	     -4.10472596	     44.99992434	    -14.99999999	     44.99992434	     75.00017585	     45.00000026	      0.00000000	      0.00000000	     44.99992434	    -14.99999999	     44.99992434	     75.00017585	     45.00000026	      0.00000000	      0.00000000
      1.88000000	    -18.77638104	     -2.48739022	     -0.91806641	      0.15125277	      0.60905026	     -1.21280116	     80.38970746	    -42.91754891	     -7.20492950	     93.77038859	      1.63660202	     22.38083229	      4.50246506	      0.00000000	     87.59320048	    -43.81267489	      0.32181082	     95.30906453	      1.66345698	     23.64931008	      8.95964573	      0.00000000	    -17.01923064	      3.32023492	     -4.10006510	     44.99992434	    -14.99999999	     44.99992434	     75.00017585	     45.00000026	      0.00000000	      0.00000000	     44.99992434	    -14.99999999	     44.99992434	     75.00017585	     45.00000026	      0.00000000	      0.00000000
      1.88500000	    -17.86774144	     -2.33428604	     -1.04736365	      0.15213949	      0.61702112	     -1.21219052	     78.41475835	    -42.58961168	     -7.86666050	     92.69821032	      1.61788898	     21.87951367	      3.92578510	      0.00000000	     85.10839973	    -44.07072655	     -1.05274593	     94.18475000	      1.64383399	     23.30078668	      8.71045379	      0.00000000	    -18.10731814	      3.01520332	     -3.99935669	     44.99992434	    -14.99999999	     44.99992434	     75.00017585	     45.00000026	      0.00000000	      0.00000000	     44.99992434	    -14.99999999	     44.99992434	     75.00017585	     45.00000026	      0.00000000	      0.00000000
